<svg width="283" height="180" viewBox="0 0 283 180" fill="none" xmlns="http://www.w3.org/2000/svg">
<path d="M276.727 57.5H225.379C234.32 89.8941 233.055 107.129 218.475 136H269.823C269.823 136 279.93 115 281.474 98C283.017 81 276.727 57.5 276.727 57.5Z" fill="#D2AB5E" stroke="black" stroke-width="2"/>
<path d="M245.659 108C247.414 84.0823 246.433 73.1941 241.344 58M259.467 58C263.564 73.8452 264.185 84.8178 262.488 108M229.262 108H279.748M275.433 121H225.81" stroke="black" stroke-width="2"/>
<path d="M5.99022 57H57.3385C48.3972 89.3941 49.6621 106.629 64.2424 135.5H12.8942C12.8942 135.5 2.78719 114.5 1.24374 97.5C-0.299713 80.5 5.99022 57 5.99022 57Z" fill="#D2AB5E" stroke="black" stroke-width="2"/>
<path d="M37.0581 107.5C35.3032 83.5823 36.2844 72.6941 41.3731 57.5M23.2501 57.5C19.1537 73.3452 18.5324 84.3178 20.2297 107.5M53.455 107.5H2.96974M7.28472 120.5H56.907" stroke="black" stroke-width="2"/>
<mask id="path-5-inside-1_2_77" fill="white">
<path d="M231.42 90C231.42 139.706 190.85 180 140.805 180C90.7603 180 50.1908 139.706 50.1908 90C50.1908 40.2944 90.7603 0 140.805 0C190.85 0 231.42 40.2944 231.42 90ZM67.3538 90C67.3538 130.291 100.239 162.953 140.805 162.953C181.372 162.953 214.257 130.291 214.257 90C214.257 49.7089 181.372 17.0466 140.805 17.0466C100.239 17.0466 67.3538 49.7089 67.3538 90Z"/>
</mask>
<path d="M231.42 90C231.42 139.706 190.85 180 140.805 180C90.7603 180 50.1908 139.706 50.1908 90C50.1908 40.2944 90.7603 0 140.805 0C190.85 0 231.42 40.2944 231.42 90ZM67.3538 90C67.3538 130.291 100.239 162.953 140.805 162.953C181.372 162.953 214.257 130.291 214.257 90C214.257 49.7089 181.372 17.0466 140.805 17.0466C100.239 17.0466 67.3538 49.7089 67.3538 90Z" fill="#D2AB5E" stroke="black" stroke-width="4" mask="url(#path-5-inside-1_2_77)"/>
<mask id="path-6-inside-2_2_77" fill="white">
<path d="M220.201 90.5C220.201 133.854 184.848 169 141.237 169C97.6261 169 62.2727 133.854 62.2727 90.5C62.2727 47.1456 97.6261 12 141.237 12C184.848 12 220.201 47.1456 220.201 90.5ZM73.7493 90.5C73.7493 127.553 103.964 157.591 141.237 157.591C178.509 157.591 208.724 127.553 208.724 90.5C208.724 53.4467 178.509 23.4091 141.237 23.4091C103.964 23.4091 73.7493 53.4467 73.7493 90.5Z"/>
</mask>
<path d="M220.201 90.5C220.201 133.854 184.848 169 141.237 169C97.6261 169 62.2727 133.854 62.2727 90.5C62.2727 47.1456 97.6261 12 141.237 12C184.848 12 220.201 47.1456 220.201 90.5ZM73.7493 90.5C73.7493 127.553 103.964 157.591 141.237 157.591C178.509 157.591 208.724 127.553 208.724 90.5C208.724 53.4467 178.509 23.4091 141.237 23.4091C103.964 23.4091 73.7493 53.4467 73.7493 90.5Z" fill="#D2AB5E" stroke="black" stroke-width="4" mask="url(#path-6-inside-2_2_77)"/>
</svg>
