<svg width="250" height="199" viewBox="0 0 250 199" fill="none" xmlns="http://www.w3.org/2000/svg">
<rect x="19" y="56" width="213" height="126" fill="#67412F" stroke="black" stroke-width="2"/>
<rect x="7" y="175" width="236" height="11" rx="5.5" fill="#D2AB5E" stroke="black" stroke-width="2"/>
<rect x="1" y="187" width="248" height="11" rx="5.5" fill="#D2AB5E" stroke="black" stroke-width="2"/>
<path d="M125.844 26L14.3749 47.6986C8.65017 53.2815 8.43417 56.4169 14.3749 62H237.75C244.883 57.0868 244.616 53.9275 237.75 47.6986L125.844 26Z" fill="#D2AB5E" stroke="black" stroke-width="2"/>
<circle cx="126.5" cy="32.5" r="31.5" fill="#D2AB5E" stroke="black" stroke-width="2"/>
<path d="M91 78L80 89V148L91 159H163L174 148V89L163 78H91Z" fill="#F0D63E" stroke="black" stroke-width="2"/>
<path d="M132.184 94C135.364 94 138.344 94.4139 141.115 95.25C143.882 96.0695 146.372 97.2561 148.577 98.8145L149.331 99.3477L148.86 100.142L145.436 105.913L144.896 106.824L144.017 106.232C142.98 105.534 141.847 104.898 140.614 104.325C139.403 103.762 138.092 103.312 136.683 102.977L136.673 102.975C135.29 102.631 133.794 102.456 132.184 102.456C129.233 102.456 126.643 103.078 124.389 104.298C122.158 105.504 120.387 107.316 119.079 109.771L119.08 109.771C118.87 110.169 118.679 110.585 118.502 111.019H142.665L141.781 112.525L139.024 117.225L138.734 117.719H117.164C117.146 118.144 117.136 118.578 117.136 119.022C117.136 119.451 117.146 119.871 117.163 120.281H137.48L136.584 121.792L133.77 126.537L133.479 127.026H118.502C118.678 127.458 118.868 127.873 119.077 128.27L119.328 128.72C120.607 130.933 122.293 132.59 124.385 133.723L124.812 133.941C126.965 135.002 129.416 135.544 132.184 135.544C133.818 135.544 135.326 135.376 136.712 135.046H136.715C138.148 134.709 139.437 134.273 140.587 133.742C141.788 133.181 142.858 132.595 143.8 131.985L144.662 131.428L145.197 132.304L148.708 138.053L149.194 138.849L148.435 139.389C146.278 140.924 143.79 142.074 140.981 142.847C138.181 143.617 135.247 144 132.184 144C127.193 144 122.727 143.007 118.812 140.992L118.811 140.991C114.913 138.975 111.842 136.092 109.617 132.355L109.616 132.354C108.64 130.708 107.882 128.931 107.337 127.026H98.4414L99.0908 125.609L101.268 120.864L101.535 120.281H106.31C106.294 119.866 106.284 119.446 106.284 119.022C106.284 118.583 106.295 118.149 106.312 117.719H98.4346L99.0928 116.299L101.27 111.599L101.538 111.019H107.331C107.877 109.105 108.637 107.32 109.616 105.669C111.841 101.917 114.912 99.0257 118.811 97.0088L118.812 97.0078C122.727 94.9934 127.193 94 132.184 94Z" fill="#736827" stroke="black" stroke-width="2"/>
</svg>
