<svg width="409" height="189" viewBox="0 0 409 189" fill="none" xmlns="http://www.w3.org/2000/svg">
<path d="M265 10L206 40.5L145.5 10L69 51V137L145.5 180L206 148.5L265 180L340 137V51L265 10Z" fill="#D2AB5E" stroke="black" stroke-width="2"/>
<path d="M321.822 63.3486V125.65L263.5 156.865L205.178 125.65V63.3486L263.5 32.1338L321.822 63.3486Z" fill="#67412F" stroke="black" stroke-width="2"/>
<path d="M204.822 63.3486V125.65L146.5 156.865L88.1777 125.65V63.3486L146.5 32.1338L204.822 63.3486Z" fill="#E5E5E5" stroke="black" stroke-width="2"/>
<path d="M347 128.795L347 61.2051L406.964 95L347 128.795Z" fill="#D2AB5E"/>
<path d="M347 128.795L347 61.2051L406.964 95L347 128.795Z" stroke="black" stroke-width="2"/>
<path d="M347 128.795L347 61.2051L406.964 95L347 128.795Z" stroke="black" stroke-width="2"/>
<path d="M62 128.795L62 61.2051L2.03613 95L62 128.795Z" fill="#D2AB5E"/>
<path d="M62 128.795L62 61.2051L2.03613 95L62 128.795Z" stroke="black" stroke-width="2"/>
<path d="M62 128.795L62 61.2051L2.03613 95L62 128.795Z" stroke="black" stroke-width="2"/>
<mask id="path-6-outside-1_4_123" maskUnits="userSpaceOnUse" x="120" y="67" width="47" height="51" fill="black">
<rect fill="white" x="120" y="67" width="47" height="51"/>
<path d="M132.188 69.4545L143.324 87.6591H143.688L154.824 69.4545H162.96L148.46 92.7273L163.051 116H154.869L143.688 98.0455H143.324L132.142 116H123.96L138.801 92.7273L124.051 69.4545H132.188Z"/>
</mask>
<path d="M132.188 69.4545L143.324 87.6591H143.688L154.824 69.4545H162.96L148.46 92.7273L163.051 116H154.869L143.688 98.0455H143.324L132.142 116H123.96L138.801 92.7273L124.051 69.4545H132.188Z" fill="#414141"/>
<path d="M132.188 69.4545L133.894 68.4109L133.309 67.4545H132.188V69.4545ZM143.324 87.6591L141.618 88.7028L142.203 89.6591H143.324V87.6591ZM143.688 87.6591V89.6591H144.809L145.394 88.7028L143.688 87.6591ZM154.824 69.4545V67.4545H153.703L153.118 68.4109L154.824 69.4545ZM162.96 69.4545L164.658 70.5122L166.563 67.4545H162.96V69.4545ZM148.46 92.7273L146.763 91.6697L146.102 92.7306L146.766 93.7896L148.46 92.7273ZM163.051 116V118H166.666L164.746 114.938L163.051 116ZM154.869 116L153.172 117.057L153.759 118H154.869V116ZM143.688 98.0455L145.385 96.9882L144.798 96.0455H143.688V98.0455ZM143.324 98.0455V96.0455H142.213L141.626 96.9882L143.324 98.0455ZM132.142 116V118H133.253L133.84 117.057L132.142 116ZM123.96 116L122.274 114.925L120.313 118H123.96V116ZM138.801 92.7273L140.487 93.8026L141.171 92.7306L140.49 91.6566L138.801 92.7273ZM124.051 69.4545V67.4545H120.416L122.362 70.5252L124.051 69.4545ZM132.188 69.4545L130.481 70.4982L141.618 88.7028L143.324 87.6591L145.03 86.6154L133.894 68.4109L132.188 69.4545ZM143.324 87.6591V89.6591H143.688V87.6591V85.6591H143.324V87.6591ZM143.688 87.6591L145.394 88.7028L156.53 70.4982L154.824 69.4545L153.118 68.4109L141.981 86.6154L143.688 87.6591ZM154.824 69.4545V71.4545H162.96V69.4545V67.4545H154.824V69.4545ZM162.96 69.4545L161.263 68.3969L146.763 91.6697L148.46 92.7273L150.158 93.7849L164.658 70.5122L162.96 69.4545ZM148.46 92.7273L146.766 93.7896L161.357 117.062L163.051 116L164.746 114.938L150.155 91.6649L148.46 92.7273ZM163.051 116V114H154.869V116V118H163.051V116ZM154.869 116L156.567 114.943L145.385 96.9882L143.688 98.0455L141.99 99.1027L153.172 117.057L154.869 116ZM143.688 98.0455V96.0455H143.324V98.0455V100.045H143.688V98.0455ZM143.324 98.0455L141.626 96.9882L130.444 114.943L132.142 116L133.84 117.057L145.022 99.1027L143.324 98.0455ZM132.142 116V114H123.96V116V118H132.142V116ZM123.96 116L125.647 117.075L140.487 93.8026L138.801 92.7273L137.115 91.6519L122.274 114.925L123.96 116ZM138.801 92.7273L140.49 91.6566L125.74 68.3839L124.051 69.4545L122.362 70.5252L137.112 93.7979L138.801 92.7273ZM124.051 69.4545V71.4545H132.188V69.4545V67.4545H124.051V69.4545Z" fill="black" mask="url(#path-6-outside-1_4_123)"/>
<path d="M251 7.375L205.197 31L159 7.375V1H251V7.375Z" fill="#D2AB5E" stroke="black" stroke-width="2"/>
<path d="M251 181.625L205.197 158L159 181.625V188H251V181.625Z" fill="#D2AB5E" stroke="black" stroke-width="2"/>
</svg>
